<?xml version="1.0" encoding="UTF-8" standalone="no"?>
<svg
   width="32"
   height="32"
   version="1.1"
   id="svg1"
   sodipodi:docname="svg.svg"
   inkscape:version="1.3.2 (091e20e, 2023-11-25, custom)"
   xmlns:inkscape="http://www.inkscape.org/namespaces/inkscape"
   xmlns:sodipodi="http://sodipodi.sourceforge.net/DTD/sodipodi-0.dtd"
   xmlns="http://www.w3.org/2000/svg"
   xmlns:svg="http://www.w3.org/2000/svg">
  <defs
     id="defs1" />
  <sodipodi:namedview
     id="namedview1"
     pagecolor="#ffffff"
     bordercolor="#000000"
     borderopacity="0.25"
     inkscape:showpageshadow="2"
     inkscape:pageopacity="0.0"
     inkscape:pagecheckerboard="0"
     inkscape:deskcolor="#d1d1d1"
     inkscape:zoom="11.313709"
     inkscape:cx="16.440232"
     inkscape:cy="10.120465"
     inkscape:window-width="1920"
     inkscape:window-height="1009"
     inkscape:window-x="-8"
     inkscape:window-y="-8"
     inkscape:window-maximized="1"
     inkscape:current-layer="g1" />
  <g
     id="g1">
    <title
       id="title1">Layer 1</title>
    <path
       fill="currentColor"
       d="m24.08875,7.9075c0.59,0.59 0.59,1.54 0,2.12l-3.89,3.89l2.12,9.19l-1.41,1.42l-3.88,-7.43l-3.9,3.9l0.36,2.47l-1.07,1.06l-1.76,-3.18l-3.19,-1.77l1.06,-1.08l2.5,0.37l3.87,-3.87l-7.43,-3.91l1.42,-1.41l9.19,2.12l3.89,-3.89c0.56,-0.58 1.56,-0.58 2.12,0"
       id="svg_1"
       style="fill:#7586ff;fill-opacity:1" />
    <path
       stroke="null"
       id="svg_6"
       d="m 15.99682,0.00558 c -8.79922,0 -15.9322,7.15828 -15.9322,15.9887 0,8.83042 7.13299,15.9887 15.9322,15.9887 8.79922,0 15.9322,-7.15828 15.9322,-15.9887 0,-8.83042 -7.13299,-15.9887 -15.9322,-15.9887 z m 0,28.67603 c -6.97294,0 -12.6436,-5.69186 -12.6436,-12.68733 0,-6.99657 5.67065,-12.68843 12.6436,-12.68843 6.97294,0 12.6425,5.69076 12.6425,12.68843 0,6.99767 -5.67175,12.68733 -12.6425,12.68733 z"
       stroke-width="5"
       fill="#000000"
       inkscape:label="svg_6"
       sodipodi:nodetypes="ssssssssss"
       style="fill:#7586ff;fill-opacity:1" />
  </g>
</svg>
